  <svg xmlns="http://www.w3.org/2000/svg">

    <symbol viewBox="0 0 40 40" id="icon-ibm">
      <path d="M0 21.527h6.224v.889H0zm0-1.71h6.224v.891H0zm1.771-1.708h2.672v.896H1.771zm0-1.702h2.672v.896H1.771zm0-1.71h2.672v.896H1.771zm0-1.708h2.672v.896H1.771zM0
        11.287h6.224v.896H0zm0-1.703h6.224v.889H0zm7.109
        11.124h9.568c.161-.276.287-.577.359-.891H7.109zm8.823-4.301H8.891v.896h7.792a3.638 3.638
        0 0 0-.745-.896zm-7.047-1.71v.896h7.047c.303-.249.547-.552.751-.896zm7.792-3.41H7.109v.896h9.921a3.643 3.643
        0 0 0-.353-.896zM13.74 9.584H7.109v.889h8.912a3.367 3.367 0 0 0-2.281-.889zm-4.855 3.405h2.667v.896H8.885zm5.339.896h2.787a3.43
        3.43 0 0 0 .12-.896h-2.907zm-5.339 4.224h2.667v.896H8.885zm5.339 0v.896h2.907c0-.308-.043-.609-.12-.896zm-7.115 4.303
        6.625.004c.891 0 1.692-.337 2.292-.889H7.109zm10.672-.885h4.437v.889h-4.437zm0-1.71h4.437v.891h-4.437zm1.771-1.708h2.667v.896h-2.667zm0-1.702h2.667v.896h-2.667zm3.907-5.12h-5.677v.896h5.984zm-.59-1.703h-5.088v.889h5.396zm4.683 11.943H32v.889h-4.448zm0-1.71H32v.891h-4.448zm0-1.708h2.667v.896h-2.667zm0-1.702h2.667v.896h-2.667zm0-.814h2.667v-.896H25.14l-.255.724-.249-.724h-5.084v.896h2.667v-.823l.287.823h4.765l.281-.823zm2.667-2.604H25.73l-.308.896h4.797zm-3.307-3.405-.308.889H32v-.889zm-2.027 12.828.308-.885h-.615zm-.588-1.704h1.181l.319-.891h-1.813zm-.6-1.703h2.381l.312-.896h-3.005zm-.593-1.702h3.573l.301-.896h-4.181zm-3.552-3.418h4.803l-.308-.896h-4.495zm6.464-1.702H32v-.896h-5.683z"/>
    </symbol>

    <symbol viewBox="0 0 512 512" id="icon-license">
      <path d="M503.983 64.134H8.017A8.016 8.016 0 0 0 0 72.15v256.534a8.017 8.017 0 0 0 8.017 8.017 8.017 8.017 0 0 0 8.017-8.017V80.167h479.933v277.912H430.23a8.016 8.016 0 0 0-8.017 8.017v65.737H16.033v-51.841a8.017 8.017 0 0 0-8.017-8.017 8.017 8.017 0 0 0-8.017 8.017v59.858a8.017 8.017 0 0 0 8.017 8.017H430.23c2.1 0 4.184-.863 5.669-2.347l73.754-73.754a8.109 8.109 0 0 0 2.347-5.669V72.15a8.015 8.015 0 0 0-8.017-8.016zm-65.737 356.362v-46.384h46.384l-46.384 46.384z"/>
      <path d="m280.046 213.51-13.82-23.936v-27.637a8.018 8.018 0 0 0-4.009-6.942l-23.936-13.82-13.82-23.936a8.017 8.017 0 0 0-6.943-4.008H189.88l-23.935-13.819a8.017 8.017 0 0 0-8.017 0l-23.936 13.82h-27.638a8.02 8.02 0 0 0-6.943 4.008l-13.82 23.936-23.936 13.82a8.016 8.016 0 0 0-4.008 6.942v27.638L43.83 213.511a8.017 8.017 0 0 0 0 8.017l13.82 23.936v27.638a8.017 8.017 0 0 0 4.008 6.942l23.936 13.82 13.82 23.936a8.016 8.016 0 0 0 6.942 4.008h13.36v83.837c0 6.47 7.639 10.303 12.827 6.413l29.395-22.046 29.395 22.046c5.192 3.893 12.827.049 12.827-6.413v-83.838h13.361a8.017 8.017 0 0 0 6.942-4.008l13.82-23.936 23.936-13.82a8.016 8.016 0 0 0 4.008-6.942v-27.638l13.82-23.936a8.02 8.02 0 0 0-.001-8.017zm-91.921 176.102-21.378-16.033a8.016 8.016 0 0 0-9.62 0l-21.378 16.033v-66.79l22.18 12.805a8.086 8.086 0 0 0 8.017 0l22.18-12.805v66.79zm63.141-150.305a8.026 8.026 0 0 0-1.074 4.008v25.159l-21.787 12.58a8.001 8.001 0 0 0-2.934 2.934l-12.58 21.787h-25.159a8.02 8.02 0 0 0-4.008 1.074l-21.786 12.579-21.787-12.58a8.026 8.026 0 0 0-4.008-1.074h-25.159l-12.58-21.787a8.001 8.001 0 0 0-2.934-2.934l-21.786-12.579v-25.159a8.02 8.02 0 0 0-1.074-4.008L60.03 217.52l12.58-21.787a8.026 8.026 0 0 0 1.074-4.008v-25.159l21.787-12.58a8.001 8.001 0 0 0 2.934-2.934l12.58-21.787h25.159a8.02 8.02 0 0 0 4.008-1.074l21.786-12.579 21.787 12.58a8.026 8.026 0 0 0 4.008 1.074h25.159l12.58 21.787a8.001 8.001 0 0 0 2.934 2.934l21.787 12.58v25.159a8.02 8.02 0 0 0 1.074 4.008l12.579 21.786-12.58 21.787z"/>
      <path d="M161.937 132.543c-46.856 0-84.977 38.12-84.977 84.977s38.121 84.977 84.977 84.977 84.977-38.12 84.977-84.977-38.121-84.977-84.977-84.977zm0 153.921c-38.015 0-68.944-30.928-68.944-68.944s30.928-68.944 68.944-68.944 68.944 30.928 68.944 68.944-30.928 68.944-68.944 68.944z"/>
      <path d="m214.361 211.587-47.031-42.756-.021-.017c-3.01-2.724-7.764-2.715-10.764.017l-16.52 15.018v-.534c0-4.428-3.589-8.017-8.017-8.017s-8.017 3.588-8.017 8.017v15.111l-14.478 13.161c-2.974 2.703-3.469 7.352-1.116 10.614 2.761 3.828 8.404 4.428 11.901 1.251l3.693-3.357v40.181a8.017 8.017 0 0 0 8.017 8.017h59.858a8.017 8.017 0 0 0 8.017-8.017v-40.181l3.693 3.357c3.496 3.179 9.14 2.577 11.901-1.251 2.354-3.262 1.858-7.91-1.116-10.614zm-30.511-4.756v45.428h-13.896v-26.188c0-4.428-3.589-8.017-8.017-8.017s-8.017 3.588-8.017 8.017v26.188h-13.896v-46.741l21.912-19.92 22.015 20.013c-.06.399-.101.804-.101 1.22zM391.963 175.299h-84.656c-4.428 0-8.017 3.588-8.017 8.017s3.588 8.017 8.017 8.017h84.656c4.428 0 8.017-3.588 8.017-8.017s-3.588-8.017-8.017-8.017zM461.228 175.299h-38.48c-4.428 0-8.017 3.588-8.017 8.017s3.588 8.017 8.017 8.017h38.48c4.428 0 8.017-3.588 8.017-8.017s-3.589-8.017-8.017-8.017zM461.228 218.054H307.307c-4.428 0-8.017 3.588-8.017 8.017s3.588 8.017 8.017 8.017h153.921c4.428 0 8.017-3.588 8.017-8.017s-3.589-8.017-8.017-8.017zM361.179 260.81h-53.872a8.016 8.016 0 0 0-8.017 8.017 8.016 8.016 0 0 0 8.017 8.017h53.872a8.016 8.016 0 0 0 8.017-8.017 8.015 8.015 0 0 0-8.017-8.017zM461.228 260.81h-69.264a8.016 8.016 0 0 0-8.017 8.017 8.016 8.016 0 0 0 8.017 8.017h69.264a8.016 8.016 0 0 0 8.017-8.017 8.017 8.017 0 0 0-8.017-8.017zM422.747 320.668h-76.96a8.016 8.016 0 0 0-8.017 8.017 8.016 8.016 0 0 0 8.017 8.017h76.96a8.016 8.016 0 0 0 8.017-8.017 8.015 8.015 0 0 0-8.017-8.017z"/>
    </symbol>

    <symbol viewBox="0 0 489.6 489.6" id="icon-partners">
      <path style="fill:#94a4a4"
        d="M244.72 99.2h.2c40.4-.4 34.5-54.4 34.5-54.4-1.6-36.1-31.7-35.8-34.7-35.7-3-.1-33.1-.4-34.8 35.6 0 0-5.9 54 34.6 54.4 0
        .1.1.1.2.1zM244.72 166.3l26.1-36s18.4 7.4 33.4 18.5c3.9 2.9 5.7 4.6 9.2 8.1 8.3 8.3 4.8 56.4 0 74s-18.9 42.9-18.9 42.9c-2.8 6.4-4.6 13.3-5.3
        20.2l-18 176.5c-.6 5.6-5.3 9.9-10.9 9.9h-31.2c-5.6 0-10.4-4.3-10.9-9.9l-18-176.5c-.7-7-2.5-13.8-5.3-20.2 0 0-14.1-25.2-18.9-42.9-4.8-17.6-8.3-65.7
        0-74 3.5-3.5 5.3-5.2 9.2-8.1 15-11 33.4-18.5 33.4-18.5l26.1 36z"/>
        <path style="fill:#2c2f33" d="M41.72 248.8c4.5 16.4 16.5 38.5 18.3 41.9 2.2 5.1 3.6 10.4 4.1 15.9l16.9 165.6c1 9.9 9.3 17.4 19.3
        17.4h29.2c10 0 18.3-7.5 19.3-17.4l16.9-165.6c.6-5.6 2-11.1 4.3-16.2 2-4.6-.1-9.9-4.6-11.9-4.6-2-9.9.1-11.9 4.6-3 6.9-5 14.2-5.7
        21.7l-16.9 165.6c-.1.6-.6 1.1-1.2 1.1h-29.2c-.6 0-1.2-.5-1.2-1.1l-17.1-165.7c-.8-7.5-2.7-14.8-5.7-21.7-.1-.3-.2-.5-.4-.8-.1-.2-12.7-22.9-16.9-38.2-4.6-17.1-5.9-54.3-2.1-60.9
        3-3 4.3-4.2 7.4-6.5 7.9-5.8 17-10.5 22.9-13.3l20.2 27.8c1.7 2.3 4.4 3.7 7.3 3.7s5.6-1.4 7.3-3.7l24.5-33.7c2.9-4 2-9.7-2-12.7-4-2.9-9.7-2-12.7
        2l-17.2 23.6-17-23.5c-2.4-3.4-6.9-4.6-10.7-3.1-.7.3-18.5 7.5-33.3 18.4-4.2 3.1-6.2 5-9.7 8.5-12.8 12.8-5.7 66-2.4 78.2zM114.12 131.9h1.7c11.6-.3
        21.4-4.5 28.4-12.4 14.9-16.8 12.8-44.8 12.4-48.3-1.5-30.9-23-41.8-40.9-41.8h-1.6c-17.9 0-39.3 11-40.9 41.8-.3 3.5-2.5 31.5 12.4 48.3 7.1 7.9 16.9
        12.2 28.5 12.4zm-22.8-59.1v-.6c1-21.6 14.7-24.8 22.8-24.8h1.5c8.1 0 21.8 3.2 22.8 24.8v.5c.7 6.4.5 25.1-8 34.7-3.7
        4.2-8.8 6.3-15.5 6.3h-.2c-6.7-.1-11.8-2.1-15.5-6.3-8.4-9.5-8.5-28.2-7.9-34.6zM324.12 278.4c-4.6 2-6.7 7.4-4.6 11.9 2.3 5.2 3.7
        10.6 4.3 16.2l16.9 165.6c1 9.9 9.3 17.4 19.3 17.4h29.2c10 0 18.3-7.5 19.3-17.4l16.9-165.6c.6-5.5 1.9-10.8 4.1-15.9 1.8-3.3 13.9-25.4
        18.3-41.9 3.3-12.2 10.5-65.4-2.3-78.2-3.5-3.5-5.5-5.4-9.7-8.5-14.8-10.9-32.5-18.1-33.3-18.4-3.9-1.6-8.3-.3-10.7 3.1l-17.2 23.6-17.3-23.5c-2.9-4.1-8.6-4.9-12.7-2-4
        2.9-4.9 8.6-2 12.7l24.5 33.7c1.7 2.3 4.4 3.7 7.3 3.7s5.6-1.4 7.3-3.7l20.2-27.8c5.9 2.8 15 7.5 22.9 13.3 3 2.2 4.3 3.5 7.4 6.5 3.8 6.6 2.5 43.8-2.1
        60.9-4.2 15.3-16.8 38-16.9 38.2s-.3.5-.4.8c-3 6.9-5 14.2-5.7 21.7l-16.9 165.6c-.1.6-.6 1.1-1.2 1.1h-29.2c-.6
        0-1.2-.5-1.2-1.1l-16.9-165.6c-.8-7.5-2.7-14.8-5.7-21.7-2-4.7-7.3-6.7-11.9-4.7zM373.62 131.9H375.32c11.6-.2
        21.4-4.5 28.5-12.4 14.9-16.8 12.8-44.8 12.4-48.3-1.5-30.9-22.9-41.8-40.9-41.8h-1.6c-17.9 0-39.3 11-40.9
        41.8-.3 3.5-2.5 31.5 12.4 48.3 7 7.9 16.8 12.1 28.4 12.4zm-22.8-59.1v-.6c1-21.6 14.7-24.8 22.8-24.8h1.5c8.1
        0 21.8 3.2 22.8 24.8v.5c.7 6.4.5 25.1-8 34.7-3.7 4.2-8.8 6.2-15.5 6.3h-.2c-6.7-.1-11.8-2.1-15.5-6.3-8.4-9.5-8.5-28.2-7.9-34.6zM169.62
        150.5c-13.5 13.5-5.9 69.8-2.3 82.8 4.8 17.5 17.6 41.1 19.5 44.5 2.4 5.5 3.9 11.2 4.5 17.1l18 176.5c1 10.3 9.6 18 20 18h31.1c10.3 0
        18.9-7.8 20-18l18-176.5c.6-5.9 2.1-11.7 4.5-17.1 1.9-3.5 14.7-27 19.5-44.5 3.5-13 11.2-69.3-2.3-82.8-3.7-3.7-5.8-5.7-10.2-9-15.7-11.6-34.6-19.2-35.4-19.6-3.9-1.6-8.3-.3-10.7
        3.1l-19.1 25.9-18.8-25.9c-2.4-3.4-6.9-4.6-10.7-3.1-.8.3-19.6 8-35.4 19.6-4.4 3.3-6.6 5.3-10.2 9zm13 12.6c3.3-3.3 4.7-4.6 8-7 8.6-6.4 18.6-11.5 25-14.5l21.8
        30c1.7 2.3 4.4 3.7 7.3 3.7 2.9 0 5.6-1.4 7.3-3.7l21.8-30c6.3 3 16.3 8.1 25 14.5 3.3 2.4 4.7 3.7 8 7 4.2 6.8 2.9 46.9-2.2 65.4-4.5 16.4-17.9
        40.6-18.1 40.8-.1.2-.3.5-.4.8-3.2 7.3-5.3 15-6.1 23l-18 176.5c-.1 1-.9 1.7-1.9 1.7h-31.1c-1 0-1.8-.7-1.9-1.7l-18-176.5c-.8-7.9-2.8-15.7-6.1-23-.1-.3-.2-.5-.4-.8-.1-.2-13.6-24.5-18.1-40.9-4.8-18.4-6.1-58.5-1.9-65.3zM243.82
        108.2H245.62c12.4-.2 22.4-4.6 29.9-13.1 15.8-17.7 13.4-47.5 13.1-51.1-1.6-32.5-24.1-44-43-44h-1.8c-18.8 0-41.4 11.5-43 44-.3 3.6-2.7 33.3 13.1 51 7.5 8.5 17.6
        12.9 29.9 13.2zm-24.9-62.5v-.6c1.1-24.4 17.8-27 24.9-27h1.7c7.1 0 23.8 2.6 24.9 27v.5c.7 6.9.6 27.1-8.6 37.4-4.1 4.6-9.7 6.9-17
        6.9h-.3c-7.3-.1-12.9-2.3-17-6.9-9.2-10.2-9.3-30.4-8.6-37.3z"/>
    </symbol>

    <!--FOOTER ICONS-->

    <symbol viewBox="0 0 15 15" id="icon-tel">
      <path d="m14.6064 11.5719-3.0361-2.0247c-.3852-.25488-.9017-.17101-1.1865.19271L9.49938 10.877c-.11365.1499-.32025.1933-.48467.102l-.16823-.0928c-.55767-.3039-1.25155-.6824-2.6496-2.08089-1.39804-1.39855-1.77723-2.09295-2.0812-2.6496l-.09224-.16823c-.0926-.16439-.04995-.37187.09997-.48643l1.13632-.88411c.36358-.28487.44756-.80118.19298-1.18658L3.42801.394309C3.1671.001847 2.64364-.115967 2.23973.126838L.970159.889469C.571253 1.12399.278592 1.50379.153542 1.9493c-.457168 1.66575-.113245 4.54058 4.121638 8.776 3.36875 3.3684 5.87662 4.2743 7.60042 4.2743.3967.0017.7918-.0499 1.1748-.1534.4456-.1249.8255-.4176 1.0598-.8167l.7634-1.2688c.2432-.404.1254-.9277-.2672-1.1888Zm-.1635.9323-.7616 1.2696c-.1683.288-.4415.4998-.7624.5909-1.5378.4222-4.22439.0725-8.29005-3.9931C.563198 6.30592.213533 3.61956.635726 2.08156c.091276-.32128.303295-.59485.591654-.76339L2.49694.556531c.17526-.105454.40245-.054338.51567.115969l1.09985 1.65125.92312 1.38454c.11055.16717.07423.39123-.08348.51493l-1.13658.88411c-.34589.26448-.44466.74303-.23171 1.12284l.09025.16398c.31947.58591.71665 1.3148 2.16668 2.7646 1.45004 1.44975 2.1787 1.84695 2.76434 2.16645l.16421.0905c.37978.2129.85836.1141 1.12285-.2318l.88406-1.1365c.1238-.15766.3477-.19395.515-.08352l3.0358 2.02472c.1704.1131.2215.3404.1159.5156ZM8.49995 2.50137c2.34575.00261 4.24675 1.90361 4.24935 4.24938 0 .13806.1119.24995.25.24995.138 0 .2499-.11189.2499-.24995-.0029-2.62177-2.1275-4.74641-4.74925-4.74929-.13805 0-.24995.1119-.24995.24996 0 .13805.1119.24995.24995.24995Z"/>
      <path d="M8.49995 4.00113c1.51785.00178 2.74785 1.23178 2.74965 2.7496 0 .13805.1119.24995.2499.24995.1381 0 .25-.1119.25-.24995-.0021-1.79382-1.4558-3.24746-3.24955-3.24951-.13805 0-.24995.1119-.24995.24995 0 .13806.1119.24996.24995.24996Z" fill="#999"/><path d="M8.49995 5.50113c.6899.00082 1.24898.55989 1.24983 1.24982 0 .13806.11192.24995.24995.24995.13807 0 .24997-.11189.24997-.24995-.0011-.96589-.78385-1.74865-1.74975-1.74973-.13805 0-.24995.1119-.24995.24995 0 .13806.1119.24996.24995.24996Z"/>
    </symbol>

    <symbol viewBox="0 0 15 15" id="icon-geo">
      <path d="M7.48959 0c-3.03132 0-5.4974 2.46609-5.4974 5.4974 0 1.39252.87742 3.35998
        2.60799 5.8478 1.26492 1.8186 2.509 3.2259 2.56142 3.2849L7.48959 15l.3281-.3699c.0523-.059
        1.29638-1.4663 2.56141-3.2849 1.7305-2.48782 2.608-4.45528 2.608-5.8478C12.9871 2.46609
        10.5209 0 7.48959 0Zm2.17437 10.8373c-.85498 1.23-1.71913 2.2886-2.17437
        2.8287-.45411-.5386-1.31504-1.5932-2.16946-2.8216-1.60343-2.30505-2.45098-4.15407-2.45098-5.347
        0-2.54769 2.07275-4.620439 4.62044-4.620439C10.0374.876961 12.11 2.94971 12.11 5.4974c0 1.19167-.8458
        3.03818-2.44604 5.3399Z"/>
      <path d="M7.48866 2.03174c-1.78906 0-3.24452 1.45546-3.24452 3.24451 0 1.78906 1.45546 3.24463
        3.24452 3.24463 1.78916 0 3.24464-1.45557 3.24464-3.24463 0-1.78905-1.45548-3.24451-3.24464-3.24451Zm0
        5.61218c-1.30543 0-2.36756-1.06213-2.36756-2.36767 0-1.30542 1.06213-2.36755 2.36756-2.36755
        1.30554 0 2.36766 1.06213 2.36766 2.36755 0 1.30554-1.06212 2.36767-2.36766 2.36767Z"/>
    </symbol>

    <symbol viewBox="0 0 15 15" id="icon-meil">
      <path d="M13.1688.792236H1.83426C.822471.792236 0 1.61471 0 2.6265v7.7467c0 1.0118.822471 1.8343
        1.83426 1.8343H13.1657c1.0118 0 1.8343-.8225 1.8343-1.8343V2.6296c.0031-1.01179-.8194-1.837364-1.8312-1.837364Zm.9963
        9.580964c0 .5494-.4469.9963-.9963.9963H1.83426c-.54934
        0-.996271-.4469-.996271-.9963V2.6296c0-.54934.446931-.99627.996271-.99627H13.1657c.5494
        0 .9963.44693.9963.99627v7.7436h.0031Z"/>
        <path d="m9.46007 6.40371 3.66853-3.28988c.1707-.15519.1862-.419.031-.5928-.1552-.17071-.419-.18622-.5928-.03104L7.50786
        7.03065l-.98696-.88144c-.00311-.00311-.00621-.00621-.00621-.00931-.02172-.02173-.04345-.04035-.06828-.05897L2.43027
        2.48689c-.1738-.15519-.43762-.13967-.5928.03414-.15518.1738-.13966.43761.03414.5928l3.71198 3.31781-3.69646
        3.46058c-.1676.15828-.17691.42208-.01862.59278.0838.0869.19553.1335.30726.1335.10242 0
        .20484-.0373.28554-.1118l3.75233-3.51019 1.018.90937c.08069.07138.18001.10552.27933.10552.09931 0
        .20173-.03724.27933-.10862l1.04593-.93731 3.73057 3.54443c.0807.0775.1863.1148.2887.1148.1117 0
        .2203-.0435.3041-.1304.1583-.1676.1521-.4345-.0155-.59276L9.46007 6.40371Z"/>
    </symbol>

		<!--systems pages back icon-->

		<symbol width="44.952" height="44.952" style="enable-background:new 0 0 44.952 44.952" id="icon-back">
			<path d="M44.952 22.108c0-1.25-.478-2.424-1.362-3.308L30.627 5.831c-.977-.977-2.561-.977-3.536 0-.978.977-.976
			 2.568 0 3.546l10.574 10.57H2.484C1.102 19.948 0 21.081 0 22.464v.028c0 1.382 1.102 2.523 2.484 2.523h35.182L27.094
			 35.579c-.978.978-.978 2.564 0 3.541.977.979 2.561.978 3.538-.001l12.958-12.97c.885-.882 1.362-2.059 1.362-3.309v-.732z"/>
		</symbol>

  </svg>
